<svg width="1200" height="760" viewBox="0 0 1200 760" xmlns="http://www.w3.org/2000/svg"><rect width="1200" height="760" fill="#F6F8FB"/><style>.t{font:600 18px sans-serif;fill:#101828}.s{font:13px sans-serif;fill:#667085}.box{fill:#fff;stroke:#EAECF0;stroke-width:2}.btn{fill:#32D583}.line{stroke:#D0D5DD;stroke-width:2}</style><text x="40" y="42" class="t">Slim PK Miniapp Wireframe Overview</text><g transform="translate(40,70)"><rect class="box" width="200" height="620" rx="24"/><text class="t" x="24" y="44">首页</text><rect x="24" y="70" width="152" height="72" rx="14" fill="#F2F4F7"/><text class="s" x="38" y="112">今日状态</text><rect x="24" y="166" width="152" height="150" rx="16" fill="#fff" stroke="#D0D5DD"/><text class="s" x="38" y="210">PK Card</text><rect x="44" y="258" width="112" height="36" rx="18" class="btn"/><text class="s" x="64" y="282" fill="#fff">今日打卡</text></g><g transform="translate(280,70)"><rect class="box" width="200" height="620" rx="24"/><text class="t" x="24" y="44">PK详情</text><rect x="24" y="70" width="152" height="92" rx="16" fill="#111827"/><text class="s" x="44" y="122" fill="#fff">D-7 / Rank</text><rect x="24" y="190" width="152" height="96" rx="16" fill="#ECFDF3"/><text class="s" x="48" y="244">今日任务</text><rect x="24" y="314" width="152" height="180" rx="16" fill="#fff" stroke="#D0D5DD"/><text class="s" x="52" y="356">排行榜</text></g><g transform="translate(520,70)"><rect class="box" width="200" height="620" rx="24"/><text class="t" x="24" y="44">打卡</text><text x="36" y="132" style="font:700 48px monospace;fill:#101828">68.4</text><text class="s" x="148" y="132">kg</text><rect x="24" y="180" width="152" height="110" rx="16" fill="#F2F4F7"/><text class="s" x="52" y="240">照片可选</text><rect x="36" y="520" width="128" height="44" rx="22" class="btn"/><text class="s" x="66" y="548" fill="#fff">提交</text></g><g transform="translate(760,70)"><rect class="box" width="200" height="620" rx="24"/><text class="t" x="24" y="44">排行榜</text><rect x="24" y="154" width="152" height="54" rx="14" fill="#ECFDF3"/><rect x="24" y="226" width="152" height="54" rx="14" fill="#fff" stroke="#D0D5DD"/><rect x="24" y="298" width="152" height="54" rx="14" fill="#fff" stroke="#D0D5DD"/><text class="s" x="58" y="462">我的位置</text></g><g transform="translate(1000,70)"><rect class="box" width="160" height="620" rx="24"/><text class="t" x="24" y="44">结算</text><circle cx="80" cy="142" r="52" fill="#FF8A3D" opacity="0.18"/><text x="50" y="152" style="font:700 28px monospace;fill:#FF8A3D">#2</text><rect x="20" y="470" width="120" height="44" rx="22" class="btn"/><text class="s" x="45" y="498" fill="#fff">分享</text></g></svg>
